<?xml version="1.0" encoding="UTF-8"?>
<svg id="Layer_1" xmlns="http://www.w3.org/2000/svg" version="1.1" viewBox="0 0 573.75 575.17">
  <!-- Generator: Adobe Illustrator 29.8.3, SVG Export Plug-In . SVG Version: 2.1.1 Build 3)  -->
  <defs>
    <style>
      .st0 {
        fill: #55b6e5;
      }

      .st1 {
        fill: #722a97;
      }

      .st2 {
        fill: #5e3e9c;
      }

      .st3 {
        fill: #683ca0;
      }

      .st4 {
        fill: #7f54bc;
      }

      .st5 {
        fill: #643daa;
      }

      .st6 {
        fill: #8641b3;
      }

      .st7 {
        fill: #63258d;
      }

      .st8 {
        fill: #612691;
      }

      .st9 {
        fill: #9738ba;
      }

      .st10 {
        fill: #732aa1;
      }

      .st11 {
        fill: #3ec2ea;
      }

      .st12 {
        fill: #7661ba;
      }

      .st13 {
        fill: #5f61bf;
      }

      .st14 {
        fill: #672ba0;
      }

      .st15 {
        fill: #793aa2;
      }

      .st16 {
        fill: #6b2998;
      }

      .st17 {
        fill: #6d2a9b;
      }

      .st18 {
        fill: #7a55b6;
      }

      .st19 {
        fill: #572b87;
      }

      .st20 {
        fill: #41bce3;
      }

      .st21 {
        fill: #48b6e5;
      }

      .st22 {
        fill: #5e90d8;
      }

      .st23 {
        fill: #6f2b9c;
      }

      .st24 {
        fill: #6f65be;
      }

      .st25 {
        fill: #5b238c;
      }

      .st26 {
        fill: #727ecd;
      }

      .st27 {
        fill: #532085;
      }

      .st28 {
        fill: #7b2fa3;
      }

      .st29 {
        fill: #8232a9;
      }

      .st30 {
        fill: #53b4df;
      }

      .st31 {
        fill: #4f1e83;
      }

      .st32 {
        fill: #471e7e;
      }

      .st33 {
        fill: #4fbfe8;
      }

      .st34 {
        fill: #8137a8;
      }

      .st35 {
        fill: #6141a8;
      }

      .st36 {
        fill: #58b0e0;
      }

      .st37 {
        fill: #7480cf;
      }

      .st38 {
        fill: #7f57b8;
      }

      .st39 {
        fill: #61bfea;
      }

      .st40 {
        fill: #532981;
      }

      .st41 {
        fill: #fcfcfd;
      }

      .st42 {
        fill: #8a37af;
      }

      .st43 {
        fill: #5cade2;
      }

      .st44 {
        fill: #5890d7;
      }

      .st45 {
        fill: #5e64be;
      }

      .st46 {
        fill: #65298f;
      }

      .st47 {
        fill: #5b77c8;
      }

      .st48 {
        fill: #5c4196;
      }

      .st49 {
        fill: #59228d;
      }

      .st50 {
        fill: #8145b0;
      }

      .st51 {
        fill: #5c95d4;
      }

      .st52 {
        fill: #49b4e1;
      }

      .st53 {
        fill: #71339a;
      }

      .st54 {
        fill: #4c1d7f;
      }

      .st55 {
        fill: #602396;
      }

      .st56 {
        fill: #592483;
      }

      .st57 {
        fill: #5aa1df;
      }

      .st58 {
        fill: #40c3ee;
      }

      .st59 {
        fill: #6151b2;
      }

      .st60 {
        fill: #9538ba;
      }

      .st61 {
        fill: #572982;
      }

      .st62 {
        fill: #4eb4e4;
      }

      .st63 {
        fill: #4abeea;
      }

      .st64 {
        fill: #624bb1;
      }

      .st65 {
        fill: #45c5e6;
      }

      .st66 {
        fill: #548dcf;
      }

      .st67 {
        fill: #5b83d0;
      }

      .st68 {
        fill: #652794;
      }

      .st69 {
        fill: #4cc6eb;
      }

      .st70 {
        fill: #6971c9;
      }

      .st71 {
        fill: #8648b8;
      }

      .st72 {
        fill: #5d278b;
      }

      .st73 {
        fill: #6c399e;
      }

      .st74 {
        fill: #5b3a94;
      }

      .st75 {
        fill: #5d3d95;
      }

      .st76 {
        fill: #5a95d9;
      }

      .st77 {
        fill: #6553b4;
      }

      .st78 {
        fill: #5c77c2;
      }

      .st79 {
        fill: #5d84cf;
      }

      .st80 {
        fill: #59a5e1;
      }

      .st81 {
        fill: #5a3f91;
      }

      .st82 {
        fill: #6593d8;
      }

      .st83 {
        fill: #3ec3eb;
      }

      .st84 {
        fill: #656fc3;
      }

      .st85 {
        fill: #4eb6e2;
      }

      .st86 {
        fill: #5ca1db;
      }

      .st87 {
        fill: #9236b5;
      }

      .st88 {
        fill: #8331a8;
      }

      .st89 {
        fill: #57a1dc;
      }

      .st90 {
        fill: #6f91d7;
      }

      .st91 {
        fill: #f4fafb;
      }

      .st92 {
        fill: #56348d;
      }

      .st93 {
        fill: #7c3bb0;
      }

      .st94 {
        fill: #569fdc;
      }

      .st95 {
        fill: #5c6fc4;
      }

      .st96 {
        fill: #8532a7;
      }

      .st97 {
        fill: #647fcb;
      }

      .st98 {
        fill: #8246b3;
      }

      .st99 {
        fill: #4abde9;
      }

      .st100 {
        fill: #5b86cc;
      }

      .st101 {
        fill: #551f8c;
      }

      .st102 {
        fill: #5aa3df;
      }

      .st103 {
        fill: #673ea9;
      }

      .st104 {
        fill: #54b6e4;
      }

      .st105 {
        fill: #756dc6;
      }

      .st106 {
        fill: #7e2ea1;
      }

      .st107 {
        fill: #6134a0;
      }

      .st108 {
        fill: #7a61c0;
      }

      .st109 {
        fill: #55afe1;
      }

      .st110 {
        fill: #fefefe;
      }

      .st111 {
        fill: #5e9ddb;
      }

      .st112 {
        fill: #4db4e5;
      }

      .st113 {
        fill: #3cc7ed;
      }

      .st114 {
        fill: #54a0d9;
      }

      .st115 {
        fill: #783ca9;
      }

      .st116 {
        fill: #5c85d1;
      }

      .st117 {
        fill: #698dd6;
      }

      .st118 {
        fill: #56a9dd;
      }

      .st119 {
        fill: #59ade2;
      }

      .st120 {
        fill: #703aa0;
      }

      .st121 {
        fill: #9039b4;
      }

      .st122 {
        fill: #628dd3;
      }

      .st123 {
        fill: #46b3e1;
      }

      .st124 {
        fill: #5a2f8b;
      }

      .st125 {
        fill: #8632b2;
      }

      .st126 {
        fill: #5d8fd6;
      }

      .st127 {
        fill: #8839af;
      }

      .st128 {
        fill: #6e69c1;
      }

      .st129 {
        fill: #4ba2db;
      }

      .st130 {
        fill: #5a78c9;
      }

      .st131 {
        fill: #fcfcfc;
      }

      .st132 {
        fill: #7d34a3;
      }

      .st133 {
        fill: #757ac9;
      }

      .st134 {
        fill: #fafbfb;
      }

      .st135 {
        fill: #8e3fb7;
      }

      .st136 {
        fill: #8230a4;
      }

      .st137 {
        fill: #6874c8;
      }

      .st138 {
        fill: #7b2f9f;
      }

      .st139 {
        fill: #792da3;
      }

      .st140 {
        fill: #6058b8;
      }

      .st141 {
        fill: #6278cb;
      }

      .st142 {
        fill: #8932b2;
      }

      .st143 {
        fill: #9638b9;
      }

      .st144 {
        fill: #623b9d;
      }

      .st145 {
        fill: #5e82cf;
      }

      .st146 {
        fill: #46bee5;
      }

      .st147 {
        fill: #5c278f;
      }

      .st148 {
        fill: #7d53b8;
      }

      .st149 {
        fill: #5e3795;
      }

      .st150 {
        fill: #5c6bbb;
      }

      .st151 {
        fill: #4dc3ec;
      }

      .st152 {
        fill: #7288d2;
      }

      .st153 {
        fill: #5f92d7;
      }

      .st154 {
        fill: #9339ba;
      }

      .st155 {
        fill: #8a33ab;
      }

      .st156 {
        fill: #712c97;
      }

      .st157 {
        fill: #5b5db4;
      }

      .st158 {
        fill: #632594;
      }

      .st159 {
        fill: #fdfdfd;
      }

      .st160 {
        fill: #4eb5e0;
      }

      .st161 {
        fill: #8266c4;
      }
    </style>
  </defs>
  <path class="st155" d="M87.17,81.06c.06-.05.46.94,1.46.12,3.53-2.88,6.12-7.21,10.53-9.12,1.12,4.79-6.92,7.01-7.98,9.51-.74,1.76.64,1.73,2.09,1.08,2.19-.98,4.12-4.94,5.88-2.1-.86,2.3-3.29,3.75-4.42,5.51-.3.46.47.95.44,1-4.1,5.6-10.04,9.76-14.51,14.99C33.91,156.6,7.45,224.3,10.17,297.06l-2.49,5.99c-.39-3.76-5.97-5.44-6.39-6.61-1.77-5,1.87-15.12-1.12-20.38C2.17,208.14,34.59,125.74,87.17,81.06Z"/>
  <path class="st61" d="M333.17,561.06l-1.02,1.51,1.06,6.44c1.97-.87,5.64,1.04,5.96,1.05-80.47,15.5-161.49-4.77-226-54l4.02-1.5-7.01-5.02,4.99-1.49c.53-2.65-2.45-2.64-3.49-4.01-.36-.47.53-.94.5-.99,29.56,22.58,61.77,40.49,97.78,50.72,38.36,10.89,83.82,13.87,123.22,7.28Z"/>
  <path class="st81" d="M550.17,402.06l-4.03-1.53-2.96,2.53c.15-2.06,1.05-3.94,1.63-5.88.24-.81,2.45-2.22-.14-3.1-2.24-.77-1.32,1.98-1.73,3.22-.64,1.92-2.17,3.01-1.75-.23,23.01-53.52,28.07-118.22,15-175l2.99,1.01c-1.03-5.01,3.6-4.95,5.01-9.01,16.36,63.19,11.82,128.05-14,188Z"/>
  <path class="st2" d="M535.17,143.06c-1.25,2.99-1.29,3.58-5,3.01,1.15,2.58,2.27,5.52-1,6.99-22.08-39.98-59.19-78.1-98-102,4.61-1.02,2.45-5.55,5-9,40.84,25.07,74.92,59.4,99,101Z"/>
  <path class="st34" d="M208.17,11.06l3,2.99-4.37,1.02-.63,1.99,2.99,1.49-5.98,2.52c.06-2.89-.78-4.57-4.01-4v7c-38.72,12.89-74.1,35.61-104,63,.03-.04-.74-.53-.44-1,1.13-1.76,3.56-3.21,4.42-5.51-1.76-2.83-3.69,1.13-5.88,2.1-1.44.64-2.83.68-2.09-1.08,1.06-2.5,9.1-4.73,7.98-9.51-4.42,1.91-7,6.24-10.53,9.12-1,.82-1.4-.17-1.46-.12C120.33,47.41,162.73,23.87,208.17,11.06Z"/>
  <path class="st120" d="M386.17,18.06c-1.58.62.44,3.19.69,4.65.15.87-.67,1.95-.69,2.75-.01.65,3.76.39,1,3.6-38.61-14.95-83.66-21.52-125-18l-3.99-.99c3.66.41,1.16-2.03,1.38-3.53.29-1.96,4.75-2.77,2.61-5.48,44.86-3.52,81.96,1.59,124,17Z"/>
  <path class="st75" d="M541.17,397.06c-.42,3.24,1.11,2.16,1.75.23.41-1.24-.5-3.99,1.73-3.22,2.6.89.39,2.3.14,3.1-.58,1.94-1.47,3.82-1.63,5.88l2.96-2.53,4.03,1.53c-14.29,33.17-34.73,62.39-60,88l-2.99,1c-2.07-3.14,1.34-7.47-2.01-10,21.81-22.51,43.61-55.2,56-84Z"/>
  <path class="st124" d="M416.17,533.06l-.99,4,3.99-.99-.99,7c-16.97,8.78-60.82,27.67-79,27-.31-.01-3.98-1.92-5.96-1.05l-1.06-6.44,1.02-1.51c26.56-4.44,59.21-15.36,83-28Z"/>
  <path class="st149" d="M485.17,481.06c3.35,2.53-.06,6.86,2.01,10l2.99-1c-21.98,22.28-44.16,38.6-72,53l.99-7-3.99.99.99-4c22.35-11.87,51.37-33.81,69-52Z"/>
  <path class="st96" d="M.17,276.06c2.99,5.26-.65,15.38,1.12,20.38.42,1.18,6.01,2.85,6.39,6.61l2.49-5.99c.84,22.46,4.89,46.42,11,68v5.99s-5,.02-5,.02l.99,5.99h-2.99C3.07,342.66-.9,312.35.17,276.06Z"/>
  <path class="st48" d="M564.17,214.06c-1.41,4.05-6.04,4-5.01,9.01l-2.99-1.01c-4.79-20.83-16.64-50.24-27-69,3.27-1.47,2.15-4.41,1-6.99,3.71.57,3.75-.02,5-3.01,12.89,22.27,22.55,46.08,29,71Z"/>
  <path class="st15" d="M262.17,1.06c2.14,2.71-2.32,3.52-2.61,5.48-.22,1.51,2.28,3.95-1.38,3.53l3.99.99c-19.44,1.65-44.22,6.75-63,13v-7c3.23-.57,4.07,1.11,4.01,4l5.98-2.52-2.99-1.49.63-1.99,4.37-1.02-3-2.99c18.69-5.27,34.52-8.47,54-10Z"/>
  <path class="st3" d="M436.17,42.06c-2.55,3.45-.39,7.98-5,9-13.41-8.26-29.32-16.32-44-22,2.76-3.21-1.01-2.94-1-3.6.02-.8.84-1.88.69-2.75-.25-1.47-2.27-4.04-.69-4.65,18.81,6.9,32.92,13.52,50,24Z"/>
  <path class="st46" d="M84.17,477.06c-2.08,6.45-3.13.3-7,0l3.99,6.99-5.99-3c-13.41-14.72-21.41-25.01-32-42l6,3c1.16-1.16-4.64-5.09-.51-4.99l3.51,2.99-.99-7c8.75,14.27,21.5,31.63,33,44Z"/>
  <path class="st72" d="M75.17,481.06l5.99,3-3.99-6.99c3.87.3,4.92,6.45,7,0,8.23,8.86,20.69,17.23,28,26,.04.04-.86.52-.5.99,1.04,1.37,4.02,1.36,3.49,4.01l-4.99,1.49,7.01,5.02-4.02,1.5c-15.37-11.73-25.06-20.78-38-35Z"/>
  <path class="st138" d="M34.17,401.06l-.42,4.07-3.59.99c2.18,4.19-2.07,2.57-2,5.94-5.81-12.24-9.82-22.04-14-35h2.99s-.99-5.99-.99-5.99l5-.02v-5.99c3.44,12.15,7.87,24.47,13,36Z"/>
  <path class="st156" d="M51.17,433.06l.99,7-3.51-2.99c-4.13-.1,1.66,3.83.51,4.99l-6-3c-5.82-9.33-10.18-16.86-15-27-.07-3.37,4.17-1.75,2-5.94l3.59-.99.42-4.07c4.7,10.58,10.94,22.12,17,32Z"/>
  <path class="st159" d="M387.17,29.06c14.68,5.68,30.59,13.74,44,22,38.81,23.9,75.92,62.02,98,102,10.36,18.76,22.21,48.17,27,69,13.07,56.78,8.01,121.48-15,175-12.39,28.8-34.19,61.49-56,84-17.63,18.19-46.65,40.13-69,52-23.79,12.64-56.44,23.56-83,28-39.4,6.58-84.85,3.6-123.22-7.28-36.02-10.22-68.22-28.14-97.78-50.72-7.31-8.77-19.77-17.14-28-26-11.5-12.37-24.25-29.73-33-44-6.06-9.88-12.3-21.42-17-32-5.13-11.53-9.56-23.85-13-36-6.11-21.58-10.16-45.54-11-68-2.72-72.76,23.74-140.46,70.49-195.01,4.48-5.23,10.41-9.38,14.51-14.99,29.91-27.39,65.28-50.11,104-63,18.78-6.25,43.56-11.35,63-13,41.34-3.52,86.39,3.05,125,18ZM230.17,25.06c-20.83,4.36-39.82,10.88-59,20C87.38,84.91,28.1,168.03,20.17,261.06c-2.79,32.78-.76,59.22,7,91,4.23,17.33,7.9,27.86,15,44,12.45,28.32,26.89,51.09,48,74,43.44,47.15,101.99,76.92,166,84,24.28,2.69,43.83,2.24,68-1,44.17-5.92,81.94-21.19,118-47,58.49-41.87,109.78-120.25,111-194l2.05-26.55c-1.47-77.02-33.11-146.8-90.05-197.45-14.57-12.96-26.01-21.95-43-32-23.84-14.1-47.86-23.91-75-30-39.93-8.95-76.87-9.4-117-1Z"/>
  <path class="st88" d="M171.17,45.06c1.28,2.73.77,3.77-1,5.99h2C92.91,89.37,36.75,169.71,26.17,257.06l-1.04-.56-1.96,10.56-2.99-6c7.93-93.03,67.22-176.15,151-216Z"/>
  <path class="st92" d="M548.17,300.06c.02-.18.94-1.12,1.04-2.42.34-4.19-.22-8.8-.04-13.09.05-1.23-.76-3.71,1-3.49v18.5c0,1.61,2.85,2.59,2.98,3.19.48,2.28.07,6.65.02,9.31-1.22,73.75-52.51,152.13-111,194l-3-5c67.54-48.37,101.85-119.23,109-201Z"/>
  <path class="st74" d="M553.17,312.06c.04-2.65.46-7.03-.02-9.31-.13-.6-2.98-1.59-2.98-3.19v-18.5c-1.76-.22-.95,2.26-1,3.49-.18,4.29.38,8.9.04,13.09-.1,1.3-1.03,2.24-1.04,2.42,4.14-78.75-29.73-158.54-89-210,1.73-1.46,4.63.8,6-2,56.93,50.65,88.58,120.43,90.05,197.45l-2.05,26.55Z"/>
  <path class="st56" d="M305.17,549.06c-14.13,1.07-29.5-.44-43.42,1.08-.92.1-8.53,1.41-5.58,3.92-64.01-7.08-122.56-36.85-166-84l3-6c53.02,59.03,132.51,90.34,212,85Z"/>
  <path class="st19" d="M442.17,506.06c-36.06,25.81-73.83,41.08-118,47-2.91-.76-9.04-2.76-4.01-4.01l-.99-.99c42.41-5.83,85.24-22.1,120-47l3,5Z"/>
  <path class="st53" d="M347.17,26.06l-.68.81c-4.27-.16-4.83.07-7.32,3.19-35.4-6.83-78.89-6.28-114,2l-1-2c3.78.71,7.9-.92,6-5,40.13-8.4,77.07-7.95,117,1Z"/>
  <path class="st7" d="M93.17,464.06l-3,6c-21.11-22.91-35.55-45.68-48-74l4-5c11.31,26.57,27.74,51.56,47,73Z"/>
  <path class="st106" d="M26.17,257.06c-3.34,27.59-.73,60.79,5,88-.64,3.72-3.26,4.15-4,7-7.76-31.78-9.79-58.22-7-91l2.99,6,1.96-10.56,1.04.56Z"/>
  <path class="st73" d="M422.17,56.06c-3.11,2.64-7.39-1.82-10,1-20.37-11.14-50.23-22.61-73-27,2.5-3.12,3.06-3.35,7.32-3.19l.68-.81c27.14,6.09,51.16,15.9,75,30Z"/>
  <path class="st132" d="M230.17,25.06c1.9,4.08-2.21,5.72-6,5l1,2c-16.19,3.82-37.99,11.75-53,19h-2c1.77-2.23,2.28-3.27,1-6,19.18-9.12,38.17-15.64,59-20Z"/>
  <path class="st144" d="M422.17,56.06c16.99,10.05,28.43,19.04,43,32-1.37,2.8-4.27.54-6,2-13.37-11.61-31.47-24.5-47-33,2.61-2.82,6.89,1.64,10-1Z"/>
  <path class="st40" d="M319.17,548.06l.99.99c-5.03,1.25,1.1,3.26,4.01,4.01-24.17,3.24-43.72,3.69-68,1-2.94-2.5,4.66-3.82,5.58-3.92,13.92-1.52,29.29-.02,43.42-1.08,4.9-.37,8.9-.3,14-1Z"/>
  <path class="st1" d="M46.17,391.06l-4,5c-7.1-16.14-10.77-26.67-15-44,.74-2.85,3.36-3.28,4-7,3.27,15.55,8.76,31.33,15,46Z"/>
  <path class="st110" d="M339.17,30.06c22.77,4.39,52.63,15.86,73,27,15.53,8.5,33.63,21.39,47,33,59.27,51.46,93.14,131.25,89,210-7.15,81.77-41.46,152.63-109,201-34.76,24.9-77.59,41.17-120,47-5.1.7-9.1.63-14,1-79.49,5.34-158.98-25.97-212-85-19.26-21.44-35.69-46.43-47-73-6.24-14.67-11.73-30.45-15-46-5.73-27.21-8.34-60.41-5-88,10.58-87.35,66.74-167.69,146-206,15.01-7.25,36.81-15.18,53-19,35.11-8.28,78.6-8.83,114-2ZM397.17,108.06c-13.18,1.8-23.14,3.71-36,7s-25.31,7.26-38,11.01l1.49,3.96c12.96-4.51,26.22-9.59,39.51-12.97,10.81-2.74,22.98-5.43,34-7s22.02-2.17,33.01-2v-2.99c-11.51-.92-22.73,1.45-34.01,3ZM277.17,125.06c-4.25,6.58-9.54,17.61-14,23-3.58,4.33-8.22,1.58-13,6s-11.52,17.85-15,24c-1.48,2.62-6.74,9.8-7,12-5.56.46-18.38-10.55-22.22-9.85-.34.06-.56.53-.78.85-7.24,6.21-14.95,17.68-22.49,23.01-2.86,2.02-6.31,2.68-9.51,3.99-.6.25-1.85-.11-2.96.5-1.84,1.02-10.93,17.48-12.04,20.5-.19.51-.69,1.17-1,2-8.06,10.94-14.27,23.23-21,35-4.96,8.67-10.15,17.26-15,25.99,1.43,1.18,25.11-7.73,29-8.99,4.41-1.43,20.83-7.87,23.6-7.97s8.73,4.26,11.4,5.97c2.95,1.88,14.19,10.82,16.47,10.93,13.85-4.84,27.13-11.06,40.53-16.93,9.8-4.29,23.15-8.34,32-14l32,22c-7.49,3.85-15.17,9.25-23,13-14.87,7.11-32.68,14.96-48,21-8.24,3.25-17.54,6.13-26,9-10.16,3.45-20.64,7.26-31,10-22.18,5.87-74.91,17.4-93.93,3.43-14.88-10.92-1.16-32.71,7.44-43.43.34,3.63-2.1,6.73-2.51,10.49-4.3,39.18,53.62,30.06,77.02,25.02,4.64-1,13.61-2.7,17.57-4.43,3.33-1.46,2.41-2.39-.05-4.86-6.58,2.03-13.56,4.2-20.33,5.48-16.67,3.16-49.43,7.04-61.2-8.21-12.91-16.72,6.95-39.08,17.48-51.51,5.16-6.09,12.24-10.73,15.5-18.5.19-.45.26-1.64-.48-1.48-3.36,2.84-7.06,5.28-10.5,8l-1-3c5.09-4.47,13.46-10.38,17.54-14.96,1.36-1.53,4.33-5.8,3.97-8.03-20.97,15.08-41.92,31.53-58.48,51.52-43.26,52.24-21.63,82.85,43.46,77.46,23.93-1.98,47.74-8.94,70.51-15.99,12.68-3.93,24.64-8.22,37-13,10.8-4.18,21.43-8.26,32-13,13.84-6.21,27.55-13.01,41-20,2.86-1.49,6.48-2.65,9-4l14.49,9.65c4.59-2.02,8.99-4.48,13.51-6.65,9.37-4.51,18.54-9.7,28-14,2.61-1.19,11.39-5.72,13-6,3.68-.64,30.9,6.52,37,8,12.09,2.94,24.69,8.19,37,8.5-2.38-2.74-4.79-5.65-7-8.5-1.47-1.9-3.06-6.78-6-8-2.8-4.23-9.09-15.84-13-18-.87-2.88-3.7-7.08-6-9-1.89-4.14-13.68-16.7-13.08-20.37,5.12-2.95,8.93-7.85,13.08-11.63,8.2-7.47,16.43-14.35,24-23,9.79-11.19,18.04-22.38,22-37,6.82-25.2-9.8-39.13-34-40-1.03-1.66-3.8-1-5.49-1.02-14.59-.15-25.23.82-39.51,3.02-9.89,1.52-18.4,3.58-28,6-10.63,2.68-21.26,5.02-31.52,8.98-1.25.48-6.14,1.73-5.47,3.51l2.71,2.37,2.52-.02c10.67-4.02,21.72-8.02,32.76-10.84,8.51-2.17,18.39-4.62,27-6,2.11-.34,4.81.28,7,0h4.01s0,2,0,2c-4.8.53-10.55,1.14-15,3-8.16.3-14.46,3.06-22,5-10.81,2.78-22.34,5.36-32.61,9.91-.66.29-2.08-.3-1.37,1.56.4,1.04,3.1,4.54,4.42,4.51,10.04-2.94,20.26-6.15,30.57-7.99,7.23-1.29,16.74-2.64,24-3,8.39-.42,18.91-.2,27,2,22.84,6.21,25.01,23.05,14,42-3.35,5.76-12.2,16.07-17,21-3.1,3.19-8.56,8.11-12,11-2.98.67-6.02-4.47-8-7-2.88-3.67-15.18-23.02-17-24-3.72-2.01-28.88,6.15-35,6-1.38-3.67-3.95-6.73-6-10-1.42-2.27-2.04-4.43-4-7-3.29-4.57-8.24-18.74-11.53-21.97-2.7-2.65-6.86-1.36-9.76-2.24-4.45-1.35-27.21-36.72-29.71-36.79-4.36,3.42-7,9.35-10,14ZM461.17,200.06c-7.7,8.68-16.31,15.13-24.53,22.97-.78.74-3.49,2.84-2.98,4.03l2.01,1.98c1.61-2.17,3.99-3.35,5.97-5.01,8.47-7.11,14.39-13.73,21.53-21.97,10.49-12.14,19.99-24.24,26.17-39.32,1.38-3.37,3.25-5.9-2.16-5.68-4.2,15.65-15.32,30.95-26.01,43ZM105.04,252.94l-1.36-3.86c-16.79,14.68-33.9,31.47-44.68,51.3-1.33,2.45-8.53,16.03-6.82,17.67h2.99c3.4-13.9,12.89-27.43,22.03-38.47,8.03-9.7,17.64-19.27,27.84-26.64ZM307.17,310.06c-6.15,2.48-6.02,2.06-10,7-2.47,3.07-3.98,5.71-6,9-3.16,5.14-7.14,7.52-4.56,15.06,1.19,1.72,16.27.86,19.56.94,2.66.06,5.35-.05,8.01,0v11.01s11,0,11,0c-.33-2.44.45-5.75,0-8.01-1.78-5.35,5.75-1.72,6.02-3.57v-9.43c-2.25-.11-4.38.76-6.02-.99,0-3.66,0-7.34,0-11,0-3.95.12-7.95-.11-11.9-7.34-2.61-11.41-.71-17.89,1.9ZM280.17,326.06l-11,4v23h11v-27ZM261.17,455.06l11,1v-63c-11.68-2.23-18.39,4.4-27.02,10.71l.03,10.29,15.98-9c.04,8.98-.03,18.01,0,27,.03,7.65-.02,15.35,0,23ZM300.17,408.06c-3.79,5.79-14.56,19.28-16.45,25.05-1.07,3.29-.42,6.61-.56,9.95,7.32.12,14.69-.18,22.01,0,2.66.06,5.35-.05,8.01,0l.93,12.57,10.62-.5c3.03-4.36-6.09-13.99,6.45-12.06v-8.43s-7.01-.57-7.01-.57c-.05-8.65.08-17.35,0-26.01-.04-4.99.03-10.01,0-15h-14.5c-4.48,3.96-6.47,10.38-9.5,15ZM160.17,414.06c-8.23-8.72-16.52-5.88-23.99,2v-6s-10.01,0-10.01,0v46l10.89-1.1c.92-1.08-.41-24.19.08-28.42,1.08-9.18,11.24-10.15,16.02-3.48-1.13,1.75.74,26.93.14,31.36l1.31,1.39c3.18-1.13,6.48-1.29,9.54.25v-30.5c0-3.34,4.76-6.14,5-6.5,3.18-2.41,11,1.06,11,4.5v31c1.45,1.97,4.31,1.73,6.54,1.56.93-.07,1.9.07,2.8-.22l1.66-1.34v-37c0-.77-3.06-4.25-3.97-5.03-5.05-4.35-10.03-4.23-16.03-2.47-3.75,1.1-6.95,2.86-8.01,6.99h-.97c.13-1.73-1.2-2.13-2.02-2.99ZM220.17,438.06c-.49,1.56-1.45,5.41-2.99,5.99-.11-2.5-1.36-4.65-2.01-6.99-2.51-9.01-4.51-18.18-8.16-26.83l-11.84-.16c3.8,10.41,7.65,20.81,11.22,31.32.44,1.3,1.66,2.29,1.78,2.67,1.55,4.67,5.43,14.72-.24,17.26-6.01,2.7-10.31-2.72-8.7,9.68,21.44,4.3,22.44-11.18,27.94-25.94,3.89-10.43,9.47-22.68,12.28-33.25.25-.93,1.26-1.43-.25-2.28-1.72-.96-9.13-.96-10.56.5-2.42,2.47-6.94,23.1-8.47,28.03ZM343.17,413.06c-16.26,12.25-9.01,47.97,18,43,8.21-1.51,13.78-5.76,16-13.99l-9.52-.02c-4.35,4.36-8.07,5.8-14.47,5.02-4.99-1.84-7.2-5.74-7-11h31.01c4.37-20.36-17.33-35.56-34.01-23ZM395.17,415.06c-.45-1.41-2.45-2.67-1-4.99h-11.01c-.03,3.31.05,6.67,0,9.99-2.66,6.7-.32,14.78.04,21.46.26,4.81-.27,9.73-.05,14.55h11.01s0-30.01,0-30.01c.96-1.66,2.34-4.88,4-6,2.68-1.8,6.87-.76,10-1v-10.01c-4.79-.3-11.79.03-13,6ZM432.17,448.06c-5.49.76-9.75-.71-11.66-6.04-2.82.3-6.16-.34-8.86.04-1.32.18-1.79-.53-1.49,1.5,1.29,8.73,11.62,13.41,19.63,13.56,2.11.04,2.79-.97,3.38-1.06,10.94-1.73,19.89-7.67,14.5-20-3.61-8.25-16.16-5.91-22.42-9.58-10.92-6.4,10.88-14.47,13.58-2.38l9.34-.05c.87-20.64-38.14-19.93-37.05-.53.94,16.68,23.5,11.58,26.59,17.55,1.79,3.46-2.4,6.55-5.55,6.99Z"/>
  <polygon class="st93" points="280.17 326.06 280.17 353.06 269.17 353.06 269.17 330.06 280.17 326.06"/>
  <g>
    <path class="st161" d="M261.17,432.06c-.04-8.98.03-18.01,0-27l-15.98,9-.03-10.29c8.62-6.3,15.34-12.94,27.02-10.71v63l-11-1h10v-14c-2.22.23-2.47-2.11-4.01-3.48-1.91-1.7-4.98-1.59-5.99-5.52Z"/>
    <g>
      <path class="st121" d="M160.17,414.06c-1.46,1.74-1.21,3.88-2.53,5.97-1.57,2.47-4.32,2.8-4.47,3.03-4.78-6.67-14.94-5.71-16.02,3.48-.5,4.23.84,27.34-.08,28.42l-10.89,1.1v-46h10.01s0,6,0,6c7.47-7.88,15.76-10.72,23.99-2Z"/>
      <path class="st6" d="M169.17,419.06c.41-.63.49-7.06,2.98-8.51l-.98-.49c6-1.76,10.98-1.88,16.03,2.47.91.78,3.97,4.26,3.97,5.03v37l-1.66,1.34c-.91.29-1.88.15-2.8.22-2.23.17-5.09.41-6.54-1.56v-31c0-3.44-7.82-6.91-11-4.5Z"/>
      <path class="st127" d="M171.17,410.06l.98.49c-2.48,1.45-2.56,7.88-2.98,8.51-.24.36-5,3.16-5,6.5v30.5c-3.06-1.53-6.37-1.38-9.54-.25l-1.31-1.39c.6-4.43-1.28-29.61-.14-31.36.15-.23,2.9-.57,4.47-3.03,1.32-2.09,1.07-4.22,2.53-5.97.81.86,2.14,1.26,2.02,3h.97c1.07-4.14,4.26-5.9,8.01-7Z"/>
    </g>
    <path class="st80" d="M383.17,420.06c-.05,3.32.03,6.67,0,10,2.34-.45-.43-4.89,2.63-5.89,1.88-.62,4.44.29,6.22,1.04l.15,3.85c1.32.15,1.29-1.79,1.99-3v30.01s-11.01,0-11.01,0c-.22-4.81.3-9.73.05-14.55-.36-6.68-2.7-14.76-.04-21.46Z"/>
    <g>
      <path class="st115" d="M215.17,437.06c.66,2.35,1.9,4.5,2.01,6.99,1.54-.58,2.5-4.43,2.99-5.99,1.54,3.89,3.85,4.76,7,7-5.5,14.77-6.5,30.24-27.94,25.94-1.61-12.4,2.69-6.99,8.7-9.68,5.67-2.54,1.79-12.6.24-17.26-.07-3.14,5.51-3.16,7-7Z"/>
      <path class="st148" d="M227.17,445.06c-3.15-2.24-5.46-3.11-7-7,1.54-4.93,6.05-25.56,8.47-28.03,1.44-1.47,8.84-1.47,10.56-.5,1.51.85.49,1.35.25,2.28-2.81,10.57-8.39,22.82-12.28,33.25Z"/>
      <path class="st50" d="M208.17,444.06c-.13-.38-1.34-1.37-1.78-2.67-3.57-10.51-7.42-20.91-11.22-31.32l11.84.16c3.66,8.65,5.65,17.82,8.16,26.83-1.49,3.84-7.07,3.86-7,7Z"/>
    </g>
    <g>
      <path class="st113" d="M432.17,448.06c3.15-.43,7.34-3.53,5.55-6.99-3.09-5.97-25.66-.87-26.59-17.55-1.09-19.4,37.91-20.11,37.05.53l-9.34.05c-2.7-12.09-24.5-4.03-13.58,2.38,6.26,3.67,18.81,1.34,22.42,9.58,5.39,12.33-3.55,18.26-14.5,20-2-1.72-.68-5.5-1-8Z"/>
      <path class="st63" d="M433.17,456.06c-.59.09-1.27,1.1-3.38,1.06-8-.15-18.34-4.83-19.63-13.56-.3-2.03.17-1.32,1.49-1.5,2.7-.38,6.04.26,8.86-.04,1.91,5.34,6.17,6.8,11.66,6.04.32,2.5-1,6.28,1,8Z"/>
    </g>
    <path class="st112" d="M383.17,420.06c.05-3.33-.04-6.68,0-10.01h11.01c-1.46,2.34.55,3.59,1,5.01.62,1.96-.19,5.65,3,5-1.66,1.12-3.04,4.34-4,6-.7,1.21-.67,3.15-1.99,3l-.15-3.85c-1.78-.75-4.35-1.66-6.22-1.04-3.06,1.01-.29,5.44-2.63,5.89.02-3.32-.06-6.67,0-10Z"/>
    <path class="st4" d="M261.17,432.06c1.02,3.94,4.09,3.83,5.99,5.52,1.54,1.37,1.79,3.71,4.01,3.48v14h-10c-.02-7.65.03-15.35,0-23Z"/>
    <path class="st83" d="M395.17,415.06c1.22-5.97,8.21-6.31,13-6v10.01c-3.13.23-7.32-.81-10,1-3.19.65-2.38-3.04-3-5Z"/>
    <g>
      <path class="st133" d="M324.17,408.06c.07,8.65-.05,17.35,0,26.01l7.02.57v8.43c-12.55-1.93-3.43,7.7-6.46,12.06l-10.62.5-.93-12.57c-2.66-.04-5.35.07-8.01,0l3-9c1.66-.06,3.34.04,5,0l1.03-1.45-.02-22.55c3.3,1.72,7.16.05,9.99-2Z"/>
      <path class="st105" d="M307.17,412.06l-12,21.99c4.31-.1,8.68.16,13,0l-3,9c-7.31-.17-14.69.12-22.01,0,.14-3.34-.52-6.66.56-9.95,1.89-5.77,12.66-19.27,16.45-25.05,4.17-.96,4.42,1.96,7,4Z"/>
      <path class="st37" d="M300.17,408.06c3.03-4.62,5.02-11.04,9.5-15h14.5c.03,4.99-.04,10.01,0,15-2.83,2.05-6.69,3.72-9.99,2l.02,22.55-1.03,1.45v-30s-6,8-6,8c-2.58-2.04-2.83-4.96-7-4Z"/>
      <path class="st131" d="M313.17,434.06c-1.66.04-3.34-.06-5,0-4.31.15-8.68-.11-13,0l12-21.99,5.99-8v30Z"/>
    </g>
    <g>
      <path class="st117" d="M343.17,413.06c16.67-12.56,38.37,2.64,34.01,23.01h-31.01s5-1.01,5-1.01c.57-4.33-4.8-6.41-5-6.99h20c-.11-6.2-4.11-10.55-10.49-10.07-.9.07-6.2,1.77-6.51,2.07-.55-3.34-1.36-5.39-5.07-4.46l-.93-2.54Z"/>
      <path class="st26" d="M349.17,420.06c-.58.54-3.38,6.89-3,8,.2.58,5.57,2.66,5,6.99l-5,1.01c-.2,5.26,2.01,9.16,7,11,2.82,1.04,7.1.74,8.06,1.44s3.25,7.11-.06,7.56c-27.01,4.97-34.26-30.75-18-43l.93,2.54c3.71-.93,4.53,1.13,5.07,4.46Z"/>
      <path class="st152" d="M353.17,447.06c6.4.78,10.13-.66,14.47-5.02l9.52.02c-2.21,8.24-7.79,12.49-16,13.99,3.32-.45,1-6.89.06-7.56s-5.25-.4-8.06-1.44Z"/>
      <path class="st41" d="M349.17,420.06c.31-.29,5.61-2,6.51-2.07,6.37-.48,10.38,3.87,10.49,10.06h-20c-.38-1.11,2.42-7.45,3-7.99Z"/>
    </g>
  </g>
  <g>
    <path class="st9" d="M124.17,256.06c3.45-2.71,7.14-5.16,10.5-8,.74-.16.67,1.03.48,1.48-3.27,7.77-10.34,12.41-15.5,18.5-10.53,12.43-30.39,34.79-17.48,51.51,11.77,15.25,44.53,11.37,61.2,8.21,6.77-1.28,13.75-3.46,20.33-5.48,2.46,2.47,3.38,3.4.05,4.86-3.96,1.73-12.93,3.43-17.57,4.43-23.4,5.04-81.32,14.17-77.02-25.02.41-3.75,2.85-6.85,2.51-10.49-8.6,10.72-22.32,32.51-7.44,43.43,19.02,13.96,71.75,2.43,93.93-3.43,2.8-.77,3.43,2.18,6,3-23.98,6.66-51.46,13.59-76.55,12.05-21.77-1.34-40.8-10.17-33.17-35.26,6.05-19.89,33.39-46.94,49.72-59.78Z"/>
    <path class="st143" d="M123.17,253.06c-3.9,3.43-9.11,6.86-13.01,10.49-18.5,17.19-67.52,69.75-24.51,86.54,29.11,11.36,79.87-1.14,109.52-10.02l5,3c-22.77,7.05-46.58,14.01-70.51,15.99-65.1,5.39-86.73-25.23-43.46-77.46,16.56-19.99,37.51-36.44,58.48-51.52.36,2.23-2.61,6.5-3.97,8.03-4.07,4.58-12.45,10.49-17.54,14.96Z"/>
    <path class="st87" d="M105.04,252.94c-10.2,7.38-19.81,16.95-27.84,26.64-9.14,11.04-18.63,24.57-22.03,38.48h-2.99c-1.7-1.65,5.49-15.23,6.82-17.68,10.78-19.84,27.89-36.63,44.68-51.3l1.36,3.86Z"/>
    <path class="st18" d="M283.17,296.06l2,4c-15.77,7.61-31.71,14.58-48,21l-2-4c15.32-6.04,33.13-13.89,48-21Z"/>
    <path class="st24" d="M327.17,273.06c-.39,2.13,1.63,1.98,3,3-14.84,8.4-29.62,16.57-45,24l-2-4c7.83-3.75,15.51-9.15,23-13,.55-.28,2.32-.07,3.68-.77,5.49-2.83,10.92-6.23,16.32-9.23h1Z"/>
    <path class="st12" d="M308.17,293.06h2s0,4,0,4c-13.45,6.99-27.16,13.79-41,20l-3.7-2.95-1.3-.05c14.62-6.45,29.84-13.61,44-21Z"/>
    <path class="st71" d="M235.17,326.06c1.74.96,3.7,2.08,2,4-12.36,4.78-24.32,9.07-37,13l-5-3c12.92-3.87,27.38-9.13,40-14Z"/>
    <path class="st38" d="M264.17,314.06l1.3.05,3.7,2.95c-10.57,4.74-21.2,8.82-32,13,1.7-1.92-.26-3.04-2-4,9.61-3.71,19.57-7.84,29-12Z"/>
    <path class="st135" d="M209.17,326.06l3,4c-9.46,3.26-18.3,6.3-28,9-2.57-.82-3.2-3.77-6-3,10.36-2.74,20.84-6.55,31-10Z"/>
    <path class="st98" d="M235.17,317.06l2,4c-8.33,3.28-16.54,6.09-25,9l-3-4c8.46-2.87,17.76-5.75,26-9Z"/>
    <path class="st99" d="M397.17,108.06c11.28-1.54,22.5-3.92,34.01-3v2.99c-10.98-.16-22.13.45-33.01,2l-1-2Z"/>
    <g>
      <path class="st41" d="M437.17,121.06c7.98-.1,21.62,3.61,27.91,8.59,10.05,7.95,9.09,18.04,6.09,29.41-5.24,11.8-12.61,22.27-21,32-6.97,8.08-15.98,16.96-24,24-9.59,8.42-20.51,15.44-30,24-3.56.72-7.18,5.14-10,7-7.34,4.84-14.64,10.36-22,15-9.77,6.16-20.83,12.22-31,18-8.02,4.56-16.91,9.78-25,14-14.16,7.39-29.38,14.55-44,21-9.43,4.16-19.39,8.29-29,12-12.62,4.87-27.08,10.13-40,14-29.65,8.89-80.41,21.39-109.52,10.02-43.01-16.79,6.01-69.34,24.51-86.54,3.9-3.63,9.11-7.05,13.01-10.49l1,3c-16.33,12.85-43.67,39.9-49.72,59.78-7.63,25.09,11.4,33.93,33.17,35.26,25.09,1.54,52.56-5.39,76.55-12.05,9.7-2.7,18.54-5.74,28-9,8.46-2.91,16.67-5.72,25-9,16.29-6.42,32.23-13.39,48-21s30.16-15.6,45-24c9.8-5.55,19.5-11,29-17,11.61-7.33,21.98-14.98,33-23,12.9-9.38,25.08-18.05,37-29,6.83-6.27,12.14-12.2,18-19,10.46-12.13,27.35-30.94,19.91-48.41-4.04-9.49-17.16-14.7-26.91-14.59-1.03-1.66-3.8-1-5.49-1.02-8.94-.09-17.65.04-26.51,1.02v-2s-4,0-4,0c11.08-1.41,21.62-1.86,33-2Z"/>
      <path class="st20" d="M440.17,125.06c9.74-.11,22.87,5.11,26.91,14.59,7.44,17.47-9.45,36.28-19.91,48.41-.81-3.65-2.74-4.21-6-3v-4s-4,1-4,1c11.01-18.95,8.84-35.79-14-42l-1-5.99h2c15.68,2.52,28.26,7.71,30.03,25.54l-3.54,17.44c18.02-21.77,21.15-45.11-13.5-48l-10-1.99c5.13.27,7.58-1.95,13-2.01Z"/>
      <path class="st118" d="M429.17,207.06c-11.92,10.95-24.1,19.62-37,29-2.55-2.38-4.83,2.03-7,0,1.03-.84,5.2-4.2,4.92-5.36-2.65-3.22-4.4-6.16-7.92-8.64.18-2.22-2.36-3.17-2.89-4.75-.68-2.03.88-2.99.89-3.25l.96.56.59-1.63c10.26-1.82,17.39,8.68,26.45,1.07,3.44-2.89,8.9-7.81,12-11,3.77-.02,5.28,3.76,9,4Z"/>
      <path class="st150" d="M393.17,259.06l10.99,6.51c17.8,1.3,29.1,14.28,44.98,18.03,2.01.48,3.98.62,6.04.45,2.21,2.86,4.62,5.76,7,8.5-12.31-.32-24.91-5.56-37-8.5,5.05,1.78,1.49-4.31.32-5.07-.99-.65-8.33-3.45-9.88-3.87-8.98-2.44-12.97-1.36-21.22-7.78-1.69-1.31-2.61-1.81-2.22-4.28.32-1.31.72-2.74,1-4Z"/>
      <path class="st78" d="M395.17,251.06c-.51,2.34,1.15,2.13,2.61,2.84,11.5,5.58,13.27,5.67,25.41,8.64,6.79,1.66,17.79,10.13,25.98,13.52,2.94,1.22,4.53,6.1,6,8-2.06.17-4.02.03-6.04-.45-15.88-3.76-27.17-16.74-44.98-18.03l-10.99-6.51c.56-2.52,1.65-6.03,2-8Z"/>
      <path class="st100" d="M394.17,246.06c.29-.17.28-1.59,1.5-1.02.91,3.35,3.65,1.54,6.56,2.46,5.43,1.72,10.53,4.34,15.97,6.03,4.92,1.53,14.24,2.46,17.97,4.53s10.2,13.77,13,18c-8.2-3.39-19.19-11.85-25.98-13.52-12.13-2.97-13.91-3.06-25.41-8.64-1.46-.71-3.12-.5-2.61-2.84.24-1.37.38-4.34-1-5Z"/>
      <path class="st51" d="M430.17,249.06c2.3,1.92,5.13,6.12,6,9-3.74-2.07-13.05-3-17.97-4.53-5.45-1.69-10.54-4.31-15.97-6.03-2.91-.92-5.65.88-6.56-2.46-1.22-.57-1.2.85-1.5,1.02-1.66.95-3.42,1.92-5,3l-3-3c2.82-1.86,6.44-6.28,10-7,7.57-1.54,15.76.8,22.66,3.84,2.51,1.1,9.47,4.61,11.34,6.16Z"/>
      <path class="st114" d="M430.17,217.06c-4.15,3.78-7.96,8.68-13.08,11.63-.59,3.66,11.19,16.23,13.08,20.37-1.86-1.55-8.83-5.06-11.34-6.16-6.9-3.04-15.09-5.37-22.66-3.84,9.49-8.56,20.41-15.58,30-24l2.52-.84,1.48,2.84Z"/>
      <path class="st11" d="M442.17,117.06c24.2.87,40.82,14.8,34,40-2.39-.37-3.88.54-4.02,3l-.98-1c3.01-11.38,3.96-21.46-6.09-29.41-6.29-4.98-19.93-8.68-27.91-8.59l-11-1.99c2.29-.31,5.17.47,7.31-.03.81-.19.23-1.8,2.12-2.06,1.76-.24,4.6,0,6.56.08Z"/>
      <path class="st123" d="M437.17,182.06l3.99-1v4c3.26-1.21,5.19-.65,6.01,3-5.86,6.8-11.17,12.73-18,19-3.72-.24-5.23-4.02-9-4,4.8-4.93,13.65-15.24,17-21Z"/>
      <path class="st153" d="M371.17,133.06c3.35,1.89,4.78,6.08,1,8-10.31,1.84-20.52,5.05-30.57,7.99-1.31.03-4.02-3.47-4.42-4.51-.71-1.86.71-1.27,1.37-1.56,10.27-4.56,21.8-7.13,32.61-9.91Z"/>
      <path class="st157" d="M392.17,263.06c-.39,2.47.54,2.97,2.22,4.28,8.25,6.42,12.24,5.34,21.22,7.78,1.55.42,8.89,3.22,9.88,3.87,1.16.77,4.72,6.85-.32,5.07-6.1-1.48-33.32-8.64-37-8,1.91-4.04,2.95-8.7,4-13Z"/>
      <path class="st104" d="M400.17,207.06c1.98,2.53,5.02,7.67,8,7-9.06,7.62-16.19-2.88-26.45-1.07l-.59,1.63-.96-.56c.14-3.31-.1-6.68,0-10,7.27-2.66,10.15-.73,15.97,2.53.95.53,3.49,2.42,4.03.47Z"/>
      <path class="st94" d="M393.17,128.06c1.99-.07,4.01.04,6.01,0v3c-1.34.2-3.22.71-5.01,1-1.58.26-5.58-.27-6,1.99,4.09.61,9.36-2.44,8,4.01-7.26.36-16.77,1.71-24,3,3.78-1.92,2.35-6.11-1-8,7.54-1.94,13.84-4.7,22-5Z"/>
      <path class="st146" d="M476.17,157.06c-3.96,14.62-12.21,25.81-22,37-1.09-1.81-2.14-2.35-4-3,8.39-9.73,15.76-20.2,21-32l.98,1c.14-2.46,1.64-3.37,4.02-3Z"/>
      <path class="st151" d="M400.17,207.06c-.54,1.95-3.08.06-4.03-.47-5.82-3.26-8.7-5.19-15.97-2.53l3-21c1.82.98,14.12,20.33,17,24Z"/>
      <path class="st52" d="M442.17,117.06c-1.96-.07-4.79-.32-6.56-.08-1.89.26-1.31,1.87-2.12,2.06-2.14.5-5.03-.28-7.31.03l11,1.99c-11.38.14-21.92.59-33,2-2.19.28-4.89-.34-7,0,1.21-1.09,2.36-.59,2.01-2.49l-2.01-1.51c14.28-2.2,24.92-3.17,39.51-3.02,1.69.02,4.45-.64,5.49,1.02Z"/>
      <path class="st82" d="M369.17,125.06l1,4c-11.04,2.82-22.09,6.82-32.76,10.84l-2.52.02-2.71-2.37c-.67-1.78,4.22-3.03,5.47-3.51,10.26-3.95,20.89-6.29,31.52-8.98Z"/>
      <path class="st62" d="M440.17,125.06c-5.41.06-7.86,2.28-13,2.01l10,1.99c-11.73-.98-26.33.24-38,2v-3c-1.99.04-4.01-.07-6,0,4.45-1.86,10.2-2.47,15-3,8.86-.97,17.58-1.11,26.51-1.02,1.69.02,4.45-.64,5.49,1.02Z"/>
      <path class="st65" d="M463.17,202.06l-2-2c10.69-12.05,21.8-27.36,26.01-43,5.42-.23,3.54,2.31,2.16,5.68-6.18,15.08-15.68,27.19-26.17,39.32Z"/>
      <path class="st160" d="M454.17,194.06c-7.57,8.65-15.8,15.53-24,23l-1.48-2.84-2.52.84c8.02-7.04,17.03-15.92,24-24,1.86.65,2.91,1.19,4,3Z"/>
      <path class="st36" d="M394.17,132.06c4.33,2.6,9.68-.15,14.51-.07s10.92,1.33,15.49,2.07h-2s1,6,1,6c-8.09-2.2-18.61-2.42-27-2,1.36-6.45-3.91-3.4-8-4.01.41-2.26,4.42-1.73,6-1.99Z"/>
      <path class="st86" d="M397.17,119.06l2.01,1.51c.35,1.9-.79,1.4-2.01,2.49-8.61,1.38-18.49,3.83-27,6l-1-4c9.6-2.42,18.11-4.48,28-6Z"/>
      <path class="st128" d="M333.17,279.06c1.92.81,1.61,3.63,4,3-1.86,1.06-4.14,2.96-6,4-3.81,2.12-9.17,5.49-12,7-2.52,1.35-6.14,2.51-9,4v-4.01s-2,0-2,0c8.09-4.22,16.98-9.44,25-14Z"/>
      <path class="st30" d="M463.17,202.06c-7.13,8.25-13.06,14.87-21.53,21.97-1.98,1.66-4.37,2.84-5.97,5.01l-2.01-1.98c-.51-1.18,2.2-3.28,2.98-4.03,8.21-7.84,16.82-14.29,24.53-22.97l2,2Z"/>
      <path class="st90" d="M361.17,115.06v2s3,0,3,0c-13.3,3.37-26.55,8.46-39.51,12.97l-1.49-3.96c12.69-3.75,25.16-7.72,38-11.01Z"/>
      <path class="st102" d="M397.17,108.06l1,2c-11.02,1.57-23.19,4.26-34,7h-3s0-2,0-2c12.86-3.29,22.82-5.2,36-7Z"/>
      <path class="st22" d="M392.17,236.06c-11.02,8.02-21.39,15.67-33,23l-3-3v-1c2.72.37,3.8-2.21,5-3,1.46-.97,3.14-1.72,5-3,4.77-3.29,9.36-6.53,14-10,1.36-1.02,3.52-1.79,5-3,2.17,2.03,4.45-2.38,7,0Z"/>
      <path class="st141" d="M356.17,256.06l3,3c-9.5,6-19.2,11.45-29,17-1.37-1.02-3.39-.87-3-3,2.32-2.17,5.31-3.45,8-5,5.42-3.13,10.73-7.09,16-10,1.35-.75,3.49-1.42,5-2Z"/>
      <path class="st79" d="M386.17,246.06l3,3c-6.7,4.59-13.12,9.6-20,14-.24.15-.76-.15-1,0l-4-2c7.36-4.64,14.66-10.16,22-15Z"/>
      <path class="st134" d="M437.17,129.06c34.64,2.88,31.52,26.23,13.5,48l3.54-17.44c-1.77-17.83-14.35-23.03-30.03-25.55-4.57-.74-10.69-1.99-15.49-2.07s-10.18,2.67-14.51.07c1.78-.29,3.67-.8,5-1,11.67-1.76,26.27-2.98,38-2Z"/>
      <g>
        <path class="st27" d="M212.17,244.06c4.7.81,8.21-1.76,12.45-3.07l2.03,2.07c2.11-1.84,2.61-3.87,5.7-3.79,10.25.25,13.92,4,21.76,8.35,3.4,1.89,9,1.61,10.11,6.4,5.22-3.72,7.45-.2,12.16-.24,2.91-.02,1.87-2.01,1.78,2.28v1c-1.6-.03-3.25,3.52-4,4-8.85,5.66-22.2,9.71-32,14,.56-1.77,1.26-2.71.1-4.52-2.3-3.57-4.29-1.21-6.07-1.96-1.93-.81-2.84-4.35-4.03-5.03-2.98-1.69-5.51.88-7.58-5.57l-5.42,2.07c1.36-7.24-2.88-7.4-9-7.99.56-2.07.56-4.39,1-6,.12-.42.76-1.12,1-2Z"/>
        <path class="st31" d="M157.17,231.06c-.02.05,1.09-.1.98.49-.33,1.69-5.33,5.14-.71,5.27,1.85.05,3.23-2.51,3.64,2.82.1,1.26-.75,2.55-.58,3.74.71,5.04,8.59,8.29,8.63,9.17,0,.24-2.9,2.41-1.95,3.5,1.33,1.52,4.63-5.59,6.91-4.95l3.12,3.48-1.93,5.36,3.88,2.12c-.7,1.63-.61,2.92-1,4-.43,1.18-3.34,3.18-1.82,5.83,4.32,2.07,7.84,2.84,8.82,8.17v1c-2.67-1.7-8.75-6.06-11.4-5.97s-19.19,6.53-23.6,7.97c2.48-2.92,3.85-4.05,1.94-7.97-.71-.52-8.54,2.68-6.94-.52.63-1.25,10.86-6.63,8.99-8.51-2.87-.42-3.95,4.06-6.48,4.01-1.26-.02-2.49-1.69-4.05-1.99-2.77-.52-6.02,1.39-7.46-2.03,6.73-11.77,12.94-24.06,21-35Z"/>
        <path class="st54" d="M210.17,252.06c6.13.59,10.36.76,9,7.99l5.42-2.07c2.07,6.45,4.6,3.88,7.58,5.57,1.19.68,2.11,4.21,4.03,5.03,1.78.75,3.76-1.6,6.07,1.96,1.17,1.8.46,2.74-.1,4.52-13.4,5.87-26.68,12.09-40.53,16.93-2.28-.11-13.52-9.05-16.47-10.93v-1c2.75.95,4.91-.41,8.11.42,1.71.45,4.54,5.24,7.88,4.58,1.15-3.62,2-7.34,3.01-11,.81-2.94,1.22-6.14,2-9,.91-3.32,2.09-6.66,3-10,.29-1.08.74-2.06,1-3Z"/>
        <path class="st136" d="M383.17,183.06l-3,21c-.1,3.32.14,6.69,0,10-.01.26-1.57,1.22-.89,3.25.53,1.58,3.07,2.53,2.89,4.75-3.76-2.64-8.29-5.01-12.85-3.09-1.97-3.01-2.04-4.45-1.16-7.91l-3.99,1.99.99-5.99c-3.01-.88-1.07,2.17-3.36,2-3.65-.27-6.49-1.08-8.64-4.01-.66-.9-1.56-2.89-2-4-.95-2.39-1.05-4.41-2-7-.75-2.04-.64-4.05-1-5,6.12.15,31.28-8.01,35-6Z"/>
        <path class="st16" d="M244.17,195.06c0,.66.07,1.35,0,2-.49,4.54-3.54,10.05-2.99,15,2.04-1.5,4.61-4.91,5.99-7,3.95-1.5,7.04,3.94,7.49,3.97.2.01,1-1.58,2.56-1.52,1.98.08,16.21,2.43,18,2.99,2.34.73,3.39,3.27,4.98,4.02,3.95,1.86,11.65,1.16,13.96,5.54-4.12.48-9.2.56-12.51,2.97-2.64-6-8.15-3.14-12.93-4.03-5.29-.98-11.98-3.01-17.75-4.24-1.56-.33-3.5-2.83-5.63-1.5-.88.55-.11,3.51-4.63,2.83-3.13-.48-2.9-3.36-4.59-4.48-2.47-1.63-9.74-1.79-12.95-4.55.17-.54-.17-1.46,0-2,.47-1.45.64-2.94,1-4,1.43-4.25,4.67-6.73,4.83-7.15.19-.49-1-2.43-.83-3.85.26-2.2,5.52-9.38,7-12l1.47,9.03,7.03,4c.8,1.24.51,2.61.51,3.96Z"/>
        <path class="st69" d="M338.17,172.06c-4.92-6.47-8.79-9.12-15.69-12.37-.66-.31-.62-3.63-4.82.36-1.95,1.85-1.98,4.78-4.48,6.02-.42-1.33-1.6-2.66-2-4-1.85-6.16-2.38-19.21-4.53-23.98-.83-1.85-4.83-4.01-6.84-3.78-1.47.17-6.55,3.85-6.72,5.23-.95,7.58,3.47,15.95,6.08,22.53.11.29-.12.71,0,1l-7.52-1.07-8.48,1.07c1.23-2.79,6.52-14.1,6.82-15.75.46-2.47-.64-6.3-.82-9.25-.55-9-2.1-17.95-2-27,2.51.07,25.26,35.43,29.71,36.79,2.9.88,7.06-.41,9.76,2.24,3.28,3.23,8.24,17.4,11.53,21.97Z"/>
        <path class="st42" d="M289.17,138.06c.18,2.95,1.28,6.78.82,9.25-.31,1.65-5.59,12.97-6.82,15.75-.71,1.6-3.19,3.44-3,6-.32-.12-.8.14-1,0-.67-.48-.88-2.34-2.72-2.85-1.94-.54-4.13,1.08-6.55-.31-1.93-1.11-2.77-4.24-4.24-4.83s-1.99,1.87-2.49,2.99c-.91-5.51,1.87-10.91,0-16,4.46-5.39,9.75-16.42,14-23,4.47,3.52,5.45,12.68,12,13Z"/>
        <path class="st125" d="M205.17,189.06c-.63,5.73-1.02,10.66-4,16-.63,1.13-3.14,2.45-3.81,4.78-.79,2.8.78,3.68.81,4.22.07,1.33-.03,2.67,0,4,.02.94.13,2.13,0,3-5.81-1-7.08-7.98-12.49-10-4.14,5.28-2.32,15.18-11.51,13,.98-3.4,1.67-9.82,2-13.53.29-3.28-.23-2.51-3-2.47,3.2-1.32,6.65-1.97,9.51-3.99,7.54-5.33,15.26-16.79,22.49-23.01l.77.58c-.84,2.48-.51,5.02-.77,7.42Z"/>
        <path class="st5" d="M278.17,257.06c1.46.03,5.54,3.14,6.95,3.55,11.19,3.22,28.45,5.36,38.31,9.74,1.5.66,3.27.14,2.74,2.71-5.41,3-10.83,6.4-16.32,9.23-1.36.7-3.13.49-3.68.77l-32-22c.75-.48,2.4-4.03,4-4Z"/>
        <path class="st35" d="M356.17,271.06c3.47,3.41,8.26,4.57,12.94,5.56,1.94.41,3.5,1.53,3.06-1.56.65,1.96,2.49,4.68,3,7-9.46,4.3-18.63,9.49-28,14,.18-8.61-10.08-7.72-16-10,1.86-1.04,4.14-2.94,6-4,6.38-3.64,12.71-7.18,19-11Z"/>
        <path class="st147" d="M395.17,251.06c-.35,1.97-1.44,5.48-2,8-.28,1.26-.68,2.69-1,4-1.05,4.3-2.09,8.96-4,13-1.61.28-10.39,4.81-13,6-.51-2.32-2.35-5.04-3-7-1.3-3.93-1.86-8.03-3-12,6.88-4.4,13.3-9.41,20-14,1.58-1.08,3.34-2.05,5-3,1.38.66,1.24,3.63,1,5Z"/>
        <path class="st32" d="M136.17,266.06c1.44,3.42,4.7,1.51,7.46,2.03,1.57.29,2.8,1.96,4.05,1.99,2.53.05,3.6-4.43,6.48-4.01,1.88,1.88-8.36,7.26-8.99,8.51-1.6,3.2,6.23,0,6.94.52,1.91,3.92.54,5.05-1.94,7.97-3.89,1.26-27.57,10.17-29,8.99,4.85-8.73,10.04-17.32,15-25.99Z"/>
        <path class="st49" d="M170.17,231.06c-1.96,3.9-5.68,7.36-3.99,12,2.76-.74,4.79-2.32,6.99-4l8.99,4.02-2,4.44c1.33.5,3.27,3.16,4,3.54-.77,2.72-1.82,5.44-3,8-.46,1-1.58,2.02-2,3l-3.88-2.12,1.93-5.36-3.12-3.48c-2.28-.64-5.58,6.47-6.91,4.95-.95-1.09,1.96-3.26,1.95-3.5-.04-.88-7.92-4.13-8.63-9.17-.17-1.2.68-2.49.58-3.74-.41-5.33-1.78-2.77-3.64-2.82-4.63-.13.37-3.58.71-5.27.12-.59-1-.44-.98-.49.31-.83.81-1.49,1-2,5.08.84,6.91-2.6,12,2Z"/>
        <path class="st60" d="M263.17,164.06c-2.01,4.53-3.95,9.1-5,14-4.01,1.13-10.63,2.95-10-3l2-21c4.78-4.42,9.42-1.67,13-6,1.87,5.09-.91,10.49,0,16Z"/>
        <path class="st0" d="M342.17,179.06c2.05,3.27,4.62,6.33,6,10,.36.95.25,2.96,1,5l-5.87-1.63c-4.25-2.99-6.6-4.31-11.59-5.02-3.18-.46-7.4-.99-10.54-.35-.63-1.85-2.1-4.29-3-7-.55-1.66-.55-3.62-1-5l8.5-1.6,16.5,5.6Z"/>
        <path class="st33" d="M313.17,166.06c2.5-1.23,2.53-4.16,4.48-6.02,4.2-3.99,4.17-.67,4.82-.36,6.9,3.25,10.77,5.9,15.69,12.37,1.96,2.57,2.58,4.73,4,7l-16.5-5.6-8.5,1.6c-.86-2.65-3.03-5.92-4-9Z"/>
        <path class="st107" d="M347.17,296.06c-4.51,2.17-8.92,4.64-13.51,6.65l-14.49-9.65c2.83-1.51,8.19-4.88,12-7,5.92,2.28,16.18,1.39,16,10Z"/>
        <path class="st139" d="M248.17,175.06l-4,20c0-1.36.29-2.72-.51-3.96l-7.03-4-1.47-9.03c3.48-6.15,10.37-19.72,15-24l-2,21Z"/>
        <path class="st8" d="M173.17,208.06c2.77-.04,3.28-.81,3,2.47-.32,3.71-1.02,10.13-2,13.53-.63,2.18-3.04,5.1-4,7-5.09-4.6-6.92-1.16-12-2,1.11-3.02,10.21-19.48,12.04-20.5,1.11-.61,2.35-.26,2.96-.5Z"/>
        <path class="st39" d="M228.17,190.06c-.17,1.42,1.02,3.36.83,3.85-.16.42-3.4,2.9-4.83,7.15-2.15-5-9.88-6.47-15.04-8.52-1.36-.54-2.39-1.85-3.96-.48,0-1,0-2,0-3,.26-2.4-.07-4.93.77-7.42l-.77-.58c.22-.32.44-.79.78-.85,3.84-.7,16.66,10.31,22.22,9.85Z"/>
        <path class="st154" d="M289.17,138.06c-6.55-.32-7.53-9.48-12-13,3-4.65,5.64-10.58,10-14-.1,9.05,1.45,18,2,27Z"/>
        <path class="st137" d="M364.17,261.06l4,2c-4,2.55-7.9,5.51-12,8-6.29,3.82-12.62,7.36-19,11-2.39.63-2.08-2.19-4-3,10.17-5.78,21.23-11.84,31-18Z"/>
        <path class="st25" d="M221.17,213.06c3.54-2.64,1.11,2,1.66,3.81,1.45,4.76,4.68,2.66,8.55,4.27,4.52,1.89,5.26,4.29,11.27,5.44,10.63,2.05,21.77,3.72,32.75,4.74,4.57,1.88,3.08,6.1,5.16,7.83,1.79,1.49,3.85.6,5.61.9-1.19,1.68-1.23,4.43-2,6-1.62,3.3-4.39,6.59-6,10,.09-4.29,1.13-2.3-1.78-2.28-4.71.04-6.94-3.49-12.16.24-1.12-4.79-6.71-4.52-10.11-6.4-7.84-4.35-11.51-8.1-21.76-8.35-3.1-.07-3.59,1.96-5.7,3.79l-2.03-2.07c-4.24,1.31-7.75,3.89-12.45,3.07.73-2.63,1.27-5.4,2-8s1.26-5.43,2-8c.95-3.32,2.01-6.67,3-10,.5-1.67,1.49-3.33,2-5Z"/>
        <path class="st64" d="M284.17,246.06c3.86,4.56,5.73,6.23,11.53,8.06,10.75,3.4,28.47,2.96,36.98,9.92,1.32,1.08,2.43,2.17,2.49,4.01-2.69,1.55-5.68,2.83-8,5h-1c.54-2.57-1.24-2.05-2.74-2.71-9.87-4.37-27.12-6.52-38.31-9.74-1.41-.41-5.49-3.52-6.95-3.55v-1c1.61-3.41,4.38-6.7,6-10Z"/>
        <path class="st103" d="M211.17,246.06c-.44,1.61-.44,3.93-1,6-.26.94-.71,1.92-1,3l-13.42-1.1c-3.64-2.02-6.65-1.28-10.58-2.9.49-4.07,3.54-7.75,5-11l21,6Z"/>
        <path class="st77" d="M214.17,236.06c-.73,2.6-1.27,5.37-2,8-.24.88-.88,1.58-1,2l-21-6c1.61-3.58,3.51-7.51,5-11,4.7,2.09,9.83,5.12,14.46,7.09,1.87.79,2.64,1.4,4.54-.09Z"/>
        <path class="st101" d="M178.17,266.06l8.59,5.93,1.91-1.97c3.11,2.85,4.65.78,6.86.99.68.06.48,1.78,1.33,2.02,1.97.56,5.09-.18,7.31,1.03-1.01,3.66-1.86,7.38-3.01,11-3.34.67-6.17-4.13-7.88-4.58-3.2-.84-5.36.52-8.11-.42-.98-5.33-4.51-6.11-8.82-8.17-1.52-2.65,1.4-4.65,1.82-5.83Z"/>
        <path class="st55" d="M206.17,265.06c-.78,2.86-1.19,6.06-2,9-2.21-1.21-5.33-.47-7.31-1.03-.85-.24-.65-1.95-1.33-2.02-2.21-.21-3.75,1.86-6.86-.99l-1.91,1.97-8.59-5.93c.39-1.08.3-2.37,1-4,.42-.98,1.54-2,2-3,6.38,5.44,17.01,5.56,25,6Z"/>
        <path class="st14" d="M209.17,255.06c-.91,3.34-2.09,6.68-3,10-7.99-.44-18.62-.56-25-6,1.18-2.56,2.23-5.28,3-8,.25.13.7-.12,1,0,3.93,1.62,6.94.88,10.58,2.9l13.42,1.1Z"/>
        <path class="st28" d="M353.17,205.06c2.14,2.93,4.99,3.73,8.64,4.01,2.29.17.35-2.89,3.36-2l-.99,5.99,3.99-1.99c-.88,3.46-.81,4.9,1.16,7.91,4.57-1.92,9.1.45,12.85,3.09,3.52,2.48,5.27,5.42,7.92,8.64.28,1.16-3.89,4.52-4.92,5.36-1.48,1.21-3.64,1.98-5,3l-.2-6.81c-1.79.4-4.64-1.84-5.34-1.84-1,0-1.68,2.27-3.46,1.64l.99-4.99c-3.12-.7-2.64,5.27-5.01,2.26l-.5-2.27-6.49,3.01c-.33-1.16-1.66-2.83-2-4-1.33-4.66-2.68-9.35-4-14-.69-2.42-1.52-4.27-1-7Z"/>
        <path class="st119" d="M321.17,187.06c3.14-.64,7.36-.11,10.54.35,4.98.71,7.34,2.03,11.59,5.02l5.87,1.63c.95,2.59,1.05,4.61,2,7,.3,3.33-.63,1.51-2.46.96-9.59-2.89-18.08-.3-25.54-6.96-.24-.69-.76-1.31-1-2-.56-1.61-.45-4.38-1-6Z"/>
        <path class="st57" d="M323.17,195.06c7.46,6.66,15.96,4.08,25.54,6.96,1.83.55,2.75,2.36,2.46-.96.44,1.11,1.34,3.1,2,4-.52,2.73.31,4.58,1,7,.3,3.33-.63,1.51-2.45.96-2.31-.7-5.43-2.37-7.28-2.73-4.99-.96-11.02-.28-16.27-2.23-1.57-4.33-3.45-8.62-5-13Z"/>
        <path class="st68" d="M223.17,207.06c3.21,2.77,10.48,2.92,12.95,4.55,1.69,1.11,1.46,4,4.59,4.48,4.52.69,3.75-2.28,4.63-2.83,2.13-1.33,4.07,1.17,5.63,1.5,5.78,1.23,12.46,3.27,17.75,4.24,4.78.88,10.29-1.97,12.93,4.03,3.31-2.41,8.39-2.49,12.51-2.97.98-.11,2.01.08,3,0-1.01,1.95-1.26,4.6-2,6-1.45,2.73-3.42,6.09-5,9-.52.95-3.47,2.37-3,5-.14-.12-.64.06-1,0-1.75-.3-3.82.59-5.61-.9-2.09-1.73-.6-5.95-5.16-7.83-10.98-1.03-22.12-2.7-32.75-4.74-6.01-1.16-6.75-3.56-11.27-5.44-3.88-1.62-7.11.48-8.55-4.27-.55-1.81,1.88-6.45-1.66-3.81.17-.55-.17-1.46,0-2,.48-1.53,1.68-3,2-4Z"/>
        <path class="st23" d="M251.17,198.06c5.25-1.17,8.67,4.17,12.5-.98l1.99,2.98c4.31-5.83,6.53,1.13,10.5-3v3.01s4-1.02,4-1.02c-.83,4.35,2.29,5.12,5.11,7.41l15.9,5.6c-.5,1.14-.47,2.97-1,4-.62,1.22-2.38,2.8-3,4-.99.08-2.02-.11-3,0-2.31-4.38-10.01-3.68-13.96-5.54-1.59-.75-2.64-3.29-4.98-4.02-1.79-.55-16.03-2.91-18-2.99-1.57-.06-2.36,1.53-2.56,1.52-.45-.03-3.54-5.47-7.49-3.97,1.16-1.76,1.9-4.15,3-6,.22-.38.8-.65,1-1Z"/>
        <path class="st142" d="M258.17,178.06c-.13.6.13,1.4,0,2-1.95,8.83-2.54,10.15-7,18-.2.35-.78.62-1,1-2.97.63-4.64,1.26-6-2,.07-.65,0-1.34,0-2l4-20c-.63,5.95,5.99,4.13,10,3Z"/>
        <path class="st111" d="M205.17,192.06c0,2.27-.24,4.6.17,6.84l17.83,6.16c-.17.54.17,1.46,0,2-.32,1-1.52,2.47-2,4-7.4.93-13.12-4.92-20-6,2.98-5.34,3.37-10.27,4-16,0,1,0,2,0,3Z"/>
        <path class="st43" d="M205.17,192.06c1.57-1.37,2.59-.07,3.96.48,5.16,2.05,12.89,3.52,15.04,8.52-.36,1.06-.53,2.55-1,4l-17.83-6.16c-.41-2.24-.17-4.57-.17-6.84Z"/>
        <path class="st139" d="M250.17,199.06c-1.1,1.85-1.84,4.24-3,6-1.38,2.09-3.95,5.5-5.99,7-.55-4.95,2.5-10.46,2.99-15,1.36,3.26,3.03,2.63,6,2Z"/>
        <path class="st85" d="M311.17,162.06c-3.81,3.04-7.75.82-12,0-2.61-6.57-7.03-14.94-6.08-22.53.17-1.38,5.24-5.06,6.72-5.23,2.01-.23,6.01,1.92,6.84,3.78,2.15,4.77,2.67,17.82,4.53,23.98Z"/>
        <path class="st89" d="M311.17,162.06c.4,1.34,1.58,2.67,2,4,.97,3.08,3.14,6.35,4,9,.45,1.38.45,3.34,1,5-.71-.5-1.52-.93-2.42-.86-2.47.21-5.05.8-7.58.86-.76-1.61-2.88-3.59-4-6-1.57-3.37-3.63-7.67-5-11-.12-.29.11-.71,0-1,4.25.82,8.19,3.04,12,0Z"/>
        <path class="st85" d="M299.17,163.06c1.37,3.33,3.43,7.63,5,11-2.04.1-4.07.1-6.06-.43-3.63-.96-11.19-4.96-14.64-5.4-1.52-.19-1.29,1.56-3.3.82-.19-2.56,2.29-4.4,3-6l8.48-1.07,7.52,1.07Z"/>
        <path class="st109" d="M304.17,174.06c1.12,2.41,3.24,4.39,4,6s1.41,4.19,2,6c-7-.4-13.09-2.13-19.36-5.14-4.46-2.14-8.32-6.61-13.64-5.86.74-1.94,1.42-4,2-6,.2.14.68-.12,1,0,2.01.73,1.78-1.02,3.3-.82,3.45.44,11.01,4.44,14.64,5.4,2,.53,4.02.53,6.06.43Z"/>
        <path class="st29" d="M279.17,169.06c-.58,2-1.26,4.06-2,6-.3.79-1.46,1.58-1,3l-1.71-.8c-6.16,2.95-13.74-4.94-16.29,2.8.13-.6-.13-1.4,0-2,1.05-4.9,2.99-9.47,5-14,.5-1.12.95-3.61,2.49-2.99s2.31,3.72,4.24,4.83c2.43,1.39,4.61-.23,6.55.31,1.84.51,2.05,2.37,2.72,2.85Z"/>
        <path class="st84" d="M198.17,218.06l1.01,5c5.82-2.29,11.64,3.25,16.99,5-.74,2.57-1.25,5.34-2,8-1.9,1.48-2.67.88-4.54.09-4.63-1.97-9.76-5-14.46-7.09.12-.28-.12-.72,0-1,1.23-2.87,2.48-3.45,3-7,.13-.87.02-2.06,0-3Z"/>
        <path class="st122" d="M221.17,211.06c-.17.54.17,1.45,0,2-.51,1.67-1.5,3.33-2,5-7.65,1.1-14.09-4.92-21-4-.03-.54-1.6-1.42-.81-4.22.66-2.33,3.17-3.65,3.81-4.78,6.88,1.08,12.6,6.93,20,6Z"/>
        <path class="st10" d="M198.17,221.06c-.52,3.55-1.77,4.13-3,7-7.45,2.14-8.27-4.4-13.99-5-1.06,7.8-1.75,11.2-8.01,16-2.19,1.68-4.23,3.26-6.99,4-1.69-4.64,2.02-8.1,3.99-12,.96-1.9,3.37-4.82,4-7,9.19,2.19,7.38-7.72,11.51-13,5.4,2.02,6.67,9,12.49,10Z"/>
        <path class="st97" d="M219.17,218.06c-.99,3.33-2.05,6.68-3,10-5.35-1.75-11.18-7.29-16.99-5l-1.01-5c-.03-1.33.07-2.67,0-4,6.91-.92,13.35,5.1,21,4Z"/>
        <path class="st59" d="M372.17,275.06c.44,3.09-1.12,1.97-3.06,1.56-4.68-.99-9.47-2.16-12.94-5.56,4.1-2.49,8-5.45,12-8,.24-.15.76.15,1,0,1.14,3.97,1.7,8.07,3,12Z"/>
        <path class="st158" d="M195.17,228.06c-.12.28.12.72,0,1-1.49,3.49-3.39,7.42-5,11-1.46,3.25-4.51,6.93-5,11-.3-.12-.75.13-1,0-.74-.38-2.67-3.04-4-3.54l2-4.44-8.99-4.02c6.25-4.8,6.95-8.2,8.01-16,5.72.6,6.54,7.14,13.99,5Z"/>
        <path class="st66" d="M318.17,180.06c.9,2.71,2.37,5.15,3,7,.55,1.62.44,4.39,1,6-2.78-1.92-8.83.31-9.02-3.99h-.97c.04.78-.54,1.42-1.01,1.99.72-2.21-.49-3.44-1-5-.59-1.81-1.23-4.38-2-6,2.53-.05,5.11-.64,7.58-.86.9-.08,1.71.35,2.42.86Z"/>
        <path class="st47" d="M300.17,216.06c5.27,10.29,15.76,10.35,26.01,11.51,1.5.17,3.96,1.5,4.99-.51,1.38,1.54,3.55,2.8,4.52,5.14,1,.93,1.41-.17,1.48-.14,6.42,2.77,13.82,5.86,20.79,6.73,1.94.24,3.7,1.35,3.21-1.73,1.04,3.6,2.7,9.57,5,12-1.86,1.28-3.54,2.03-5,3,3.18-3.42-4.73-5.6-7.02-6.48-14.46-5.5-26.68-7.28-41.02-10.98-6.25-1.62-11.85-6.65-17.96-8.54.74-1.4.99-4.05,2-6,.62-1.2,2.38-2.78,3-4Z"/>
        <path class="st95" d="M361.17,252.06c-1.2.79-2.28,3.37-5,3-.65-1.76-2.2-2.15-3.72-2.78-11.31-4.7-21.08-5.69-32.33-8.67-10.08-2.68-19.76-6.96-29.95-8.55,1.58-2.91,3.55-6.27,5-9,6.11,1.89,11.71,6.92,17.96,8.54,14.34,3.71,26.56,5.49,41.02,10.98,2.3.87,10.2,3.06,7.02,6.48Z"/>
        <path class="st45" d="M356.17,255.06v1c-1.51.58-3.65,1.25-5,2-2.63-2.24-7.2-.92-10.02-1.49-9.77-1.96-20.82-6.13-30.59-8.41-5.74-1.34-18.23-1.75-21.97-5.07-1.18-1.05-1.3-2.93-1.43-3.03-.47-2.63,2.48-4.05,3-5,10.19,1.59,19.86,5.87,29.95,8.55,11.25,2.99,21.02,3.97,32.33,8.67,1.52.63,3.08,1.02,3.72,2.78Z"/>
        <path class="st17" d="M360.17,230.06l6.49-3.01.5,2.27c2.36,3.02,1.89-2.96,5.01-2.26l-.99,4.99c1.78.63,2.46-1.64,3.46-1.64.7,0,3.55,2.24,5.34,1.84l.2,6.81c-4.64,3.47-9.23,6.71-14,10-2.3-2.43-3.96-8.4-5-12-.6-2.09-.48-5.18-1-7Z"/>
        <path class="st140" d="M351.17,258.06c-5.27,2.91-10.58,6.87-16,10-.06-1.84-1.17-2.93-2.49-4.01-8.51-6.96-26.23-6.52-36.98-9.92-5.8-1.83-7.67-3.5-11.53-8.06.77-1.57.81-4.32,2-6,.36.06.86-.12,1,0,.13.11.24,1.98,1.43,3.03,3.74,3.32,16.23,3.73,21.97,5.07,9.77,2.28,20.82,6.45,30.59,8.41,2.82.56,7.39-.76,10.02,1.49Z"/>
        <path class="st76" d="M328.17,208.06c5.25,1.95,11.28,1.27,16.27,2.23,1.84.36,4.96,2.02,7.28,2.73,1.82.56,2.75,2.37,2.45-.96,1.32,4.65,2.67,9.34,4,14-.14,1.87,1.03,3.83-1.99,2.49-7.57-3.36-15.54-8.43-24.01-8.49-.67-1.68-1.35-3.29-2-5-.84-2.22-1.29-5.05-2-7Z"/>
        <path class="st116" d="M332.17,220.06c8.47.06,16.45,5.13,24.01,8.49,3.02,1.34,1.85-.62,1.99-2.49.34,1.17,1.67,2.84,2,4,.52,1.82.4,4.91,1,7,.49,3.08-1.27,1.97-3.21,1.73-6.97-.87-14.37-3.96-20.79-6.73-1.39-4.13-3.38-7.95-5-12Z"/>
        <path class="st130" d="M311.17,191.06c.48-.57,1.05-1.21,1.01-1.99h.97c.19,4.3,6.24,2.07,9.02,3.99.24.69.76,1.31,1,2,1.55,4.38,3.43,8.67,5,13,.71,1.95,1.16,4.78,2,7-2.55-1.74-5.47-.31-8,0-.33.04-.68-.05-1,0-3.66-5.13-8-9.67-11.82-14.69-1-1.31-2-4.16-2.18-4.31,1.24-1.71,2.64-3.39,4-5Z"/>
        <path class="st139" d="M276.17,178.06c5.65,7,11.83,13.47,18,20,3.03,3.21,5.9,6.87,9,10,.37,1.92-1.6,3.07-2,4l-15.9-5.6c-2.82-2.28-5.93-3.05-5.11-7.41l-3.99,1.02v-3.01c-3.98,4.13-6.2-2.83-10.51,3l-1.99-2.98c-3.83,5.15-7.26-.19-12.5.98,4.46-7.85,5.05-9.17,7-18,2.56-7.74,10.14.16,16.29-2.8l1.71.8Z"/>
        <path class="st67" d="M303.17,208.06c3.1,3.13,3.02,1.18,5.98,2.51,5.33,2.41,2.71,6.03,12.02,4.49.32-.05.67.04,1,0,2.3,3.74,6.11,8.77,9,12-1.03,2-3.49.68-4.99.51-10.25-1.15-20.74-1.21-26.01-11.51.53-1.03.5-2.86,1-4,.4-.93,2.37-2.08,2-4Z"/>
        <path class="st89" d="M310.17,186.06c.51,1.56,1.72,2.79,1,5-1.36,1.61-2.76,3.29-4,5-.06-.05-.98.66-1.5.47-2.05-.74-3.58-1.57-5.91-1.45-3.56.18-2.83,2.93-5.59,2.98-6.17-6.53-12.35-13-18-20-.46-1.42.7-2.21,1-3,5.32-.75,9.18,3.72,13.64,5.86,6.27,3.02,12.36,4.75,19.36,5.14Z"/>
        <path class="st13" d="M330.17,215.06c.65,1.71,1.33,3.32,2,5,1.62,4.05,3.61,7.87,5,12-.07-.03-.48,1.07-1.48.14-.97-2.34-3.14-3.6-4.52-5.14-2.89-3.23-6.7-8.26-9-12,2.53-.31,5.45-1.74,8,0Z"/>
        <path class="st44" d="M307.17,196.06c.18.16,1.19,3.01,2.18,4.31,3.82,5.02,8.16,9.55,11.82,14.69-9.32,1.54-6.69-2.08-12.02-4.49-2.95-1.33-2.87.62-5.98-2.51s-5.97-6.79-9-10c2.76-.05,2.03-2.8,5.59-2.98,2.33-.12,3.86.7,5.91,1.45.52.19,1.44-.52,1.5-.47Z"/>
      </g>
    </g>
  </g>
  <g>
    <path class="st108" d="M299.17,330.06l-1.01,1.99c2.99.1,6.02-.11,9.01,0l2.08,8.41-3.08,1.59c-3.29-.08-18.37.78-19.56-.94-2.58-7.54,1.4-9.92,4.56-15.06l8,4Z"/>
    <path class="st145" d="M313.17,332.06c3.28,3.69,10.97,7.92,12,13,.46,2.25-.32,5.56,0,8.01h-11.01s.01-11.01.01-11.01c-2.66-.04-5.35.07-8.01,0l3.08-1.59-2.08-8.41c1.99.08,4.01-.05,6,0Z"/>
    <path class="st129" d="M313.17,331.06l1.01-7c2.4,1.7,5.19,2.52,7.95,3.37.87.27,1.96-.46,2-.37.4.78-.58,2.28,1.03,4s3.77.88,6.01.99v9.43c-.26,1.85-7.79-1.77-6.01,3.57-1.03-5.08-8.72-9.31-12-13v-1Z"/>
    <path class="st58" d="M307.17,310.06c6.48-2.61,10.56-4.51,17.89-1.9.23,3.95.11,7.94.11,11.9-3.52-3.1-6.68-.44-10.41-1.89-.24-.19-1.35-4.15-1.59-5.11-.2-.83.15-2.05,0-3-1.19.4-2.26,1.98-2.99,3l-3-3Z"/>
    <path class="st21" d="M313.17,313.06c.24.96,1.34,4.92,1.59,5.11,3.73,1.45,6.9-1.21,10.41,1.89,0,3.66,0,7.34,0,11-1.61-1.73-.63-3.22-1.03-4-.05-.09-1.14.63-2,.37-2.77-.85-5.56-1.67-7.95-3.37l-1.01,7v-18Z"/>
    <path class="st126" d="M307.17,310.06l3,3c-2.08,2.89-5.18,7.14-7,10l-6-6c3.98-4.94,3.85-4.52,10-7Z"/>
    <path class="st70" d="M303.17,323.06c-1.07,1.68-1.41,5.52-4,7l-8-4c2.02-3.29,3.53-5.93,6-9l6,6Z"/>
    <path class="st91" d="M313.17,313.06v19c-1.99-.05-4.01.08-6,0-2.99-.12-6.02.09-9.01,0l1.01-1.99c2.59-1.48,2.93-5.32,4-7,1.82-2.86,4.92-7.11,7-10,.73-1.02,1.8-2.6,2.99-3,.16.94-.19,2.17,0,3Z"/>
  </g>
</svg>